<?xml version="1.0" encoding="utf-8"?>
<!-- Generator: Adobe Illustrator 19.0.0, SVG Export Plug-In . SVG Version: 6.00 Build 0)  -->
<svg version="1.1" id="Capa_1" xmlns="http://www.w3.org/2000/svg" xmlns:xlink="http://www.w3.org/1999/xlink" x="0px" y="0px"
	 width="58px" height="58px" viewBox="-276 368 58 58" style="enable-background:new -276 368 58 58;" xml:space="preserve">
<style type="text/css">
	.st0{fill:#FFFFFF;}
	.st1{fill:#FFE62C;}
</style>
<path class="st0" d="M-247,374.7V368c-16,0-29,13-29,29c0,8,3.2,15.3,8.5,20.5l4.7-4.7c-4-4-6.5-9.6-6.5-15.8
	C-269.3,384.7-259.3,374.7-247,374.7z"/>
<path class="st1" d="M-247,368v6.7c12.3,0,22.3,10,22.3,22.3s-10,22.3-22.3,22.3c-6.2,0-11.7-2.5-15.8-6.5l-4.7,4.7
	c5.2,5.2,12.5,8.5,20.5,8.5c2.5,0,4.9-0.3,7.2-0.9c1.4-0.4,2.7-0.8,4-1.4c1.7-0.7,3.4-1.6,4.9-2.7c0.8-0.5,1.5-1.1,2.2-1.7
	c0.7-0.6,1.4-1.2,2.1-1.9c5.2-5.2,8.5-12.5,8.5-20.5C-218,381-231,368-247,368z"/>
</svg>
